# xmcd
#
# Track frame offsets: 
#        150
#        22039
#        43301
#        60630
#        85033
#        109728
#        130263
#        150053
#        172302
#        191119
#        209490
#        225383
#
# Disc length: 3254 seconds
#
# Revision: 1
# Processed by: cddbd v1.5.2PL0 Copyright (c) Steve Scherf et al.
# Submitted via: ExactAudioCopyFreeDBPlugin 1.0
#
DISCID=a00cb40c
DTITLE=小易 - DTSES非常烧
DYEAR=2007
DGENRE=Pop
TTITLE0=张恒合唱 - 千里之外
TTITLE1=菊花台
TTITLE2=爱你爱你
TTITLE3=西海情歌
TTITLE4=太美丽
TTITLE5=生日礼物
TTITLE6=雨樱花
TTITLE7=无奈
TTITLE8=不由自主
TTITLE9=亲亲
TTITLE10=小眼睛姑娘
TTITLE11=张恒合唱 - 私奔
EXTD=61.8%
EXTT0=
EXTT1=
EXTT2=
EXTT3=
EXTT4=
EXTT5=
EXTT6=
EXTT7=
EXTT8=
EXTT9=
EXTT10=
EXTT11=
PLAYORDER=
